<?xml version="1.0"?>
<svg xmlns="http://www.w3.org/2000/svg" id="Layer_1_copy" data-name="Layer 1 copy" viewBox="0 0 64 64" width="512px" height="512px" class=""><g><path d="M22,31a1,1,0,0,0-1-1H19a1,1,0,0,0,0,2h2A1,1,0,0,0,22,31Z" data-original="#000000" class="active-path" data-old_color="#000000" fill="#102054"/><path d="M56,57a1,1,0,0,0-1-1H53V36a1,1,0,0,0,1-1V19a1,1,0,0,0-1-1H52V13a1,1,0,0,0-1-1H49.5V7a1,1,0,0,0-2,0v5H46a1,1,0,0,0-1,1v5H44a1,1,0,0,0-1,1v5H41V10a1,1,0,0,0-1-1H37.469L33,3.638V1a1,1,0,0,0-2,0V3.638L26.531,9H24a1,1,0,0,0-1,1v4a1,1,0,0,0,2,0V11H39V24H25V18a1,1,0,0,0-2,0v6H21V19a1,1,0,0,0-1-1H19V13a1,1,0,0,0-1-1H16.5V7a1,1,0,0,0-2,0v5H13a1,1,0,0,0-1,1v5H11a1,1,0,0,0-1,1V35a1,1,0,0,0,1,1V47a1,1,0,0,0,2,0V36h6v9a1,1,0,0,0,2,0V36h4V56H21V49a1,1,0,0,0-2,0v7H13V51a1,1,0,0,0-2,0v5H10a1,1,0,0,0-1,1v5H0v2H64V62H56ZM29.135,9,32,5.562,34.865,9ZM47,14h3v4H47Zm-2,6h7v4H45Zm-5,6H52v8H39.521l-5.6-8ZM39,56V36h4V56ZM26.921,34,32,26.744,37.079,34ZM14,14h3v4H14Zm-2,6h7v4H12Zm0,14V26H30.079l-5.6,8Zm15,2H37V56H27ZM11,58H47a1,1,0,0,0,0-2H45V36h6V56a1,1,0,0,0,0,2h3v4H11Z" data-original="#000000" class="active-path" data-old_color="#000000" fill="#102054"/><path d="M36,17a1,1,0,0,0,0-2H34a1,1,0,0,0,0,2Z" data-original="#000000" class="active-path" data-old_color="#000000" fill="#102054"/><path d="M30,17a1,1,0,0,0,0-2H28a1,1,0,0,0,0,2Z" data-original="#000000" class="active-path" data-old_color="#000000" fill="#102054"/><path d="M43,30h1a1,1,0,0,0,0-2H43a1,1,0,0,0,0,2Z" data-original="#000000" class="active-path" data-old_color="#000000" fill="#102054"/><path d="M47,30h1a1,1,0,0,0,0-2H47a1,1,0,0,0,0,2Z" data-original="#000000" class="active-path" data-old_color="#000000" fill="#102054"/></g> </svg>
