<?xml version="1.0"?>
<svg xmlns="http://www.w3.org/2000/svg" id="Layer_1_copy" height="512px" viewBox="0 0 64 64" width="512px" data-name="Layer 1 copy"><g><path d="m45 36h8v20h-8z" data-original="#000000" class="active-path" data-old_color="#000000" fill="#102054"/><path d="m32 26.744-5.079 7.256h10.158z" data-original="#000000" class="active-path" data-old_color="#000000" fill="#102054"/><path d="m27 56v-20h-6v9a1 1 0 0 1 -2 0v-9h-8v20h8v-7a1 1 0 0 1 2 0v7z" data-original="#000000" class="active-path" data-old_color="#000000" fill="#102054"/><path d="m43 36h-4-2v20h6z" data-original="#000000" class="active-path" data-old_color="#000000" fill="#102054"/><path d="m56 62v-4h-47v4h-9v2h64v-2z" data-original="#000000" class="active-path" data-old_color="#000000" fill="#102054"/><path d="m31.181 24.427a1.037 1.037 0 0 1 1.639 0l6.701 9.573h14.479v-15a1 1 0 0 0 -1-1h-1v-5a1 1 0 0 0 -1-1h-1.5v-5a1 1 0 0 0 -2 0v5h-1.5a1 1 0 0 0 -1 1v5h-1a1 1 0 0 0 -1 1v5h-2v-14a1 1 0 0 0 -1-1h-2.531l-4.469-5.362v-2.638a1 1 0 0 0 -2 0v2.638l-4.469 5.362h-2.531a1 1 0 0 0 -1 1v14h-2v-5a1 1 0 0 0 -1-1h-1v-5a1 1 0 0 0 -1-1h-1.5v-5a1 1 0 0 0 -2 0v5h-1.5a1 1 0 0 0 -1 1v5h-1a1 1 0 0 0 -1 1v15h14.479zm16.819 5.573h-1a1 1 0 0 1 0-2h1a1 1 0 0 1 0 2zm-5-2h1a1 1 0 0 1 0 2h-1a1 1 0 0 1 0-2zm-9-13h2a1 1 0 0 1 0 2h-2a1 1 0 0 1 0-2zm-6 0h2a1 1 0 0 1 0 2h-2a1 1 0 0 1 0-2zm-7 17h-2a1 1 0 0 1 0-2h2a1 1 0 0 1 0 2z" data-original="#000000" class="active-path" data-old_color="#000000" fill="#102054"/></g> </svg>
